<?xml version="1.0" encoding="UTF-8" standalone="no"?>
<!-- Created with Inkscape (http://www.inkscape.org/) -->

<svg
   xmlns:dc="http://purl.org/dc/elements/1.1/"
   xmlns:cc="http://creativecommons.org/ns#"
   xmlns:rdf="http://www.w3.org/1999/02/22-rdf-syntax-ns#"
   xmlns:svg="http://www.w3.org/2000/svg"
   xmlns="http://www.w3.org/2000/svg"
   xmlns:sodipodi="http://sodipodi.sourceforge.net/DTD/sodipodi-0.dtd"
   xmlns:inkscape="http://www.inkscape.org/namespaces/inkscape"
   width="210mm"
   height="297mm"
   viewBox="0 0 210 297"
   version="1.1"
   id="svg8"
   inkscape:version="0.92.1 r15371"
   sodipodi:docname="YouTube_buttons.svg">
  <defs
     id="defs2" />
  <sodipodi:namedview
     id="base"
     pagecolor="#ffffff"
     bordercolor="#666666"
     borderopacity="1.0"
     inkscape:pageopacity="0.0"
     inkscape:pageshadow="2"
     inkscape:zoom="1.979899"
     inkscape:cx="374.89817"
     inkscape:cy="-88.44256"
     inkscape:document-units="mm"
     inkscape:current-layer="layer1"
     showgrid="false"
     showborder="false"
     inkscape:window-width="958"
     inkscape:window-height="1008"
     inkscape:window-x="1913"
     inkscape:window-y="140"
     inkscape:window-maximized="0"
     inkscape:pagecheckerboard="true" />
  <metadata
     id="metadata5">
    <rdf:RDF>
      <cc:Work
         rdf:about="">
        <dc:format>image/svg+xml</dc:format>
        <dc:type
           rdf:resource="http://purl.org/dc/dcmitype/StillImage" />
        <dc:title></dc:title>
      </cc:Work>
    </rdf:RDF>
  </metadata>
  <g
     inkscape:label="Layer 1"
     inkscape:groupmode="layer"
     id="layer1">
    <path
       sodipodi:type="star"
       style="opacity:1;fill:#ffffff;fill-opacity:1;stroke:none;stroke-width:1.27918851;stroke-linecap:butt;stroke-linejoin:round;stroke-miterlimit:4;stroke-dasharray:none;stroke-opacity:1"
       id="path3864"
       sodipodi:sides="3"
       sodipodi:cx="14.489216"
       sodipodi:cy="280.06666"
       sodipodi:r1="9.7764645"
       sodipodi:r2="4.8882322"
       sodipodi:arg1="2.0943951"
       sodipodi:arg2="3.1415927"
       inkscape:flatsided="true"
       inkscape:rounded="0"
       inkscape:randomized="0"
       d="m 9.6009836,288.53332 0,-16.93334 14.6646964,8.46667 z"
       inkscape:transform-center-x="-2.4441159"
       inkscape:transform-center-y="-5.6597328e-006"
       inkscape:export-xdpi="96"
       inkscape:export-ydpi="96" />
    <g
       id="g3880"
       transform="translate(-0.09933468,6.8194681)"
       inkscape:export-xdpi="96"
       inkscape:export-ydpi="96">
      <path
         transform="matrix(-0.88335763,0,0,-1,6.7085596,0)"
         sodipodi:type="star"
         style="opacity:1;fill:#ffffff;fill-opacity:1;stroke:none;stroke-width:0.9993661;stroke-linecap:butt;stroke-linejoin:round;stroke-miterlimit:4;stroke-dasharray:none;stroke-opacity:1"
         id="path3872"
         sodipodi:sides="3"
         sodipodi:cx="-53.694984"
         sodipodi:cy="-273.24719"
         sodipodi:r1="7.6378627"
         sodipodi:r2="3.8189316"
         sodipodi:arg1="2.0943951"
         sodipodi:arg2="3.1415927"
         inkscape:flatsided="true"
         inkscape:rounded="0"
         inkscape:randomized="0"
         d="m -57.513916,-266.63261 0,-13.22917 11.456794,6.61459 z"
         inkscape:transform-center-x="1.6867417"
         inkscape:transform-center-y="2.889893e-006" />
      <rect
         y="266.63263"
         x="44.284748"
         height="13.229167"
         width="2.1166666"
         id="rect3874"
         style="opacity:1;fill:#ffffff;fill-opacity:1;stroke:none;stroke-width:1.23961282;stroke-linecap:butt;stroke-linejoin:round;stroke-miterlimit:4;stroke-dasharray:none;stroke-opacity:1" />
    </g>
    <g
       transform="rotate(180,67.782997,276.65693)"
       id="g3888"
       inkscape:export-xdpi="96"
       inkscape:export-ydpi="96">
      <path
         inkscape:transform-center-y="2.889893e-006"
         inkscape:transform-center-x="1.6867417"
         d="m -57.513916,-266.63261 0,-13.22917 11.456794,6.61459 z"
         inkscape:randomized="0"
         inkscape:rounded="0"
         inkscape:flatsided="true"
         sodipodi:arg2="3.1415927"
         sodipodi:arg1="2.0943951"
         sodipodi:r2="3.8189316"
         sodipodi:r1="7.6378627"
         sodipodi:cy="-273.24719"
         sodipodi:cx="-53.694984"
         sodipodi:sides="3"
         id="path3884"
         style="opacity:1;fill:#ffffff;fill-opacity:1;stroke:none;stroke-width:0.9993661;stroke-linecap:butt;stroke-linejoin:round;stroke-miterlimit:4;stroke-dasharray:none;stroke-opacity:1"
         sodipodi:type="star"
         transform="matrix(-0.88335763,0,0,-1,6.7085596,0)" />
      <rect
         style="opacity:1;fill:#ffffff;fill-opacity:1;stroke:none;stroke-width:1.23961282;stroke-linecap:butt;stroke-linejoin:round;stroke-miterlimit:4;stroke-dasharray:none;stroke-opacity:1"
         id="rect3886"
         width="2.1166666"
         height="13.229167"
         x="44.284748"
         y="266.63263" />
    </g>
    <g
       id="g3946"
       transform="translate(25.123335,-0.87243954)"
       inkscape:export-xdpi="96"
       inkscape:export-ydpi="96">
      <g
         id="g3956"
         transform="matrix(0.50000211,0,0,0.50000211,-16.398828,157.83844)">
        <path
           id="path3919"
           transform="matrix(1,0,0,1.7320508,0,-232.52009)"
           style="opacity:1;fill:#ffffff;fill-opacity:1;stroke:none;stroke-width:1.20673275;stroke-linecap:butt;stroke-linejoin:round;stroke-miterlimit:4;stroke-dasharray:none;stroke-opacity:1"
           d="M -9.536743e-7,315.4895 16.933333,305.71304 l -1e-6,19.55293 z m 1.510437e-6,-3.96238 H 16.933333 v 7.92476 H 5.567627e-7 Z M 20.047857,304.80246 a 13.228877,10.701945 0 0 0 -0.441829,0.006 v 2.67164 a 9.9216595,8.0263327 0 0 1 0.331156,-0.005 9.9216595,8.0263327 0 0 1 8.931319,5.1449 9.9216595,8.0263327 0 0 1 -5.705881,10.37008 h -4.31e-4 a 9.9216595,8.0263327 0 0 1 -3.556163,0.52442 v 2.67328 a 13.228877,10.701945 0 0 0 4.741694,-0.69899 h 4.31e-4 a 13.228877,10.701945 0 0 0 7.607983,-13.82681 13.228877,10.701945 0 0 0 -11.908279,-6.86008 z m -0.220914,5.34625 a 6.61444,5.3508887 0 0 0 -0.220915,0.003 v 10.6902 a 6.61444,5.3508887 0 0 0 2.370632,-0.34981 h 4.3e-4 a 6.61444,5.3508887 0 0 0 3.803777,-6.91329 6.61444,5.3508887 0 0 0 -5.953924,-3.43005 z" />
      </g>
    </g>
    <path
       style="opacity:1;fill:#ffffff;fill-opacity:1;stroke:none;stroke-width:0.57847571;stroke-linecap:butt;stroke-linejoin:round;stroke-miterlimit:4;stroke-dasharray:none;stroke-opacity:1"
       d="m 40.216768,303.35 c -2.1988,0 -3.968854,1.51456 -3.968854,3.39581 v 14.37506 c 0,1.88132 1.770054,3.3958 3.968854,3.3958 h 21.166459 c 2.198799,0 3.968854,-1.51448 3.968854,-3.3958 v -14.37506 c 0,-1.88125 -1.770055,-3.39581 -3.968854,-3.39581 z m -1.080039,9.47152 h 5.820834 v 3.52811 h -5.820834 z m 8.73125,0 h 14.552084 v 3.52811 H 47.867979 Z m -8.709648,5.90059 h 14.552083 v 3.52761 H 39.158331 Z m 17.440898,0 h 5.820834 v 3.52761 h -5.820834 z"
       id="rect3962"
       inkscape:connector-curvature="0"
       inkscape:export-xdpi="96"
       inkscape:export-ydpi="96" />
    <g
       id="g5079"
       style="fill:#ffffff"
       transform="matrix(0.63618755,0,0,0.63618755,30.793457,114.19673)"
       inkscape:export-xdpi="96"
       inkscape:export-ydpi="96">
      <g
         id="g5055"
         style="fill:#ffffff">
        <g
           id="g5032"
           transform="rotate(-60,84.695961,313.93332)"
           style="fill:#ffffff">
          <g
             transform="rotate(-60,84.666668,313.93332)"
             id="g5006"
             style="fill:#ffffff">
            <g
               id="g4983"
               transform="rotate(-60,84.666663,313.93333)"
               style="fill:#ffffff">
              <g
                 transform="rotate(-60,84.666667,313.93332)"
                 id="g4965"
                 style="fill:#ffffff">
                <g
                   id="g4948"
                   transform="rotate(-60,84.66666,313.93333)"
                   style="fill:#ffffff">
                  <g
                     id="g4649"
                     style="fill:#ffffff">
                    <g
                       id="g4658"
                       style="fill:#ffffff">
                      <path
                         inkscape:connector-curvature="0"
                         d="m 85.245225,300.57744 a 13.325193,13.325193 0 0 0 -5.22138,0.87799 13.325193,13.325193 0 0 0 -7.6631,17.21602 13.325193,13.325193 0 0 0 17.21548,7.6636 h 5.3e-4 a 13.325193,13.325193 0 0 0 7.6631,-17.21601 13.325193,13.325193 0 0 0 -11.99461,-8.5411 z m -0.27698,8.29305 a 5.0270833,5.0270833 0 0 1 4.5253,3.22254 5.0270833,5.0270833 0 0 1 -2.89129,6.4952 5.0270833,5.0270833 0 0 1 -6.49521,-2.89128 5.0270833,5.0270833 0 0 1 2.89129,-6.49523 5.0270833,5.0270833 0 0 1 1.96991,-0.33123 z m 0.27698,-8.29305 a 13.325193,13.325193 0 0 0 -5.22138,0.87799 13.325193,13.325193 0 0 0 -7.6631,17.21602 13.325193,13.325193 0 0 0 17.21548,7.6636 h 5.3e-4 a 13.325193,13.325193 0 0 0 7.6631,-17.21601 13.325193,13.325193 0 0 0 -11.99461,-8.5411 z m -0.27698,8.29305 a 5.0270833,5.0270833 0 0 1 4.5253,3.22254 5.0270833,5.0270833 0 0 1 -2.89129,6.4952 5.0270833,5.0270833 0 0 1 -6.49521,-2.89128 5.0270833,5.0270833 0 0 1 2.89129,-6.49523 5.0270833,5.0270833 0 0 1 1.96991,-0.33123 z m -3.25588,-0.91578 -3.834113,6.64088 -9.602282,-5.54386 3.834116,-6.64089 z m -3.700485,5.54781 3.834105,6.64088 -9.602265,5.54387 -3.834117,-6.64088 z m 9.609075,6.4094 3.83412,-6.64088 9.602275,5.54389 -3.834105,6.64086 z m 3.70048,-5.54778 -3.83413,-6.64089 9.60228,-5.54389 3.834115,6.64088 z m -2.9543,-5.97861 h -7.66823 v -11.08776 h 7.66823 z m -7.5181,11.09559 7.66822,3e-5 v 11.08774 h -7.66822 z"
                         style="opacity:1;fill:#ffffff;fill-opacity:1;stroke:none;stroke-width:1.16332459;stroke-linecap:butt;stroke-linejoin:round;stroke-miterlimit:4;stroke-dasharray:none;stroke-opacity:1"
                         id="path4643" />
                      <path
                         inkscape:connector-curvature="0"
                         id="path4007"
                         d="m 85.111595,300.61563 a 13.325193,13.325193 0 0 0 -5.221386,0.878 13.325193,13.325193 0 0 0 -7.663098,17.21601 13.325193,13.325193 0 0 0 17.215485,7.6636 l 5.16e-4,-5e-4 a 13.325193,13.325193 0 0 0 7.663098,-17.21601 13.325193,13.325193 0 0 0 -11.994615,-8.5411 z m -0.276985,8.29305 a 5.0270833,5.0270833 0 0 1 4.525304,3.22255 5.0270833,5.0270833 0 0 1 -2.891295,6.4952 5.0270833,5.0270833 0 0 1 -6.495211,-2.89129 5.0270833,5.0270833 0 0 1 2.891295,-6.49523 5.0270833,5.0270833 0 0 1 1.969907,-0.33123 z"
                         style="opacity:1;fill:#ffffff;fill-opacity:1;stroke:none;stroke-width:1.16332459;stroke-linecap:butt;stroke-linejoin:round;stroke-miterlimit:4;stroke-dasharray:none;stroke-opacity:1" />
                    </g>
                  </g>
                  <path
                     transform="matrix(0.39247317,0,0,0.69446101,49.02675,90.836056)"
                     inkscape:transform-center-y="-0.88194917"
                     d="m 85.09821,304.91759 -8.798608,0 4.399304,-7.61981 z"
                     inkscape:randomized="0"
                     inkscape:rounded="0"
                     inkscape:flatsided="true"
                     sodipodi:arg2="1.5707963"
                     sodipodi:arg1="0.52359878"
                     sodipodi:r2="2.5399394"
                     sodipodi:r1="5.0798788"
                     sodipodi:cy="302.37766"
                     sodipodi:cx="80.698906"
                     sodipodi:sides="3"
                     id="path4936"
                     style="opacity:1;fill:#ffffff;fill-opacity:1;stroke:none;stroke-width:1.39999998;stroke-linecap:butt;stroke-linejoin:round;stroke-miterlimit:4;stroke-dasharray:none;stroke-opacity:1"
                     sodipodi:type="star" />
                  <path
                     sodipodi:type="star"
                     style="opacity:1;fill:#ffffff;fill-opacity:1;stroke:none;stroke-width:1.39999998;stroke-linecap:butt;stroke-linejoin:round;stroke-miterlimit:4;stroke-dasharray:none;stroke-opacity:1"
                     id="path4938"
                     sodipodi:sides="3"
                     sodipodi:cx="80.698906"
                     sodipodi:cy="302.37766"
                     sodipodi:r1="5.0798788"
                     sodipodi:r2="2.5399394"
                     sodipodi:arg1="0.52359878"
                     sodipodi:arg2="1.5707963"
                     inkscape:flatsided="true"
                     inkscape:rounded="0"
                     inkscape:randomized="0"
                     d="m 85.09821,304.91759 -8.798608,0 4.399304,-7.61981 z"
                     inkscape:transform-center-y="-0.88194917"
                     transform="matrix(0.39247317,0,0,0.69446101,56.69498,90.836056)" />
                </g>
                <path
                   sodipodi:type="star"
                   style="opacity:1;fill:#ffffff;fill-opacity:1;stroke:none;stroke-width:1.39999998;stroke-linecap:butt;stroke-linejoin:round;stroke-miterlimit:4;stroke-dasharray:none;stroke-opacity:1"
                   id="path4940"
                   sodipodi:sides="3"
                   sodipodi:cx="80.698906"
                   sodipodi:cy="302.37766"
                   sodipodi:r1="5.0798788"
                   sodipodi:r2="2.5399394"
                   sodipodi:arg1="0.52359878"
                   sodipodi:arg2="1.5707963"
                   inkscape:flatsided="true"
                   inkscape:rounded="0"
                   inkscape:randomized="0"
                   d="m 85.09821,304.91759 -8.798608,0 4.399304,-7.61981 z"
                   inkscape:transform-center-y="-0.88194917"
                   transform="matrix(0.39247317,0,0,0.69446101,49.02673,90.836062)" />
                <path
                   sodipodi:type="star"
                   style="opacity:1;fill:#ffffff;fill-opacity:1;stroke:none;stroke-width:1.39999998;stroke-linecap:butt;stroke-linejoin:round;stroke-miterlimit:4;stroke-dasharray:none;stroke-opacity:1"
                   id="path4952"
                   sodipodi:sides="3"
                   sodipodi:cx="80.698906"
                   sodipodi:cy="302.37766"
                   sodipodi:r1="5.0798788"
                   sodipodi:r2="2.5399394"
                   sodipodi:arg1="0.52359878"
                   sodipodi:arg2="1.5707963"
                   inkscape:flatsided="true"
                   inkscape:rounded="0"
                   inkscape:randomized="0"
                   d="m 85.09821,304.91759 -8.798608,0 4.399304,-7.61981 z"
                   inkscape:transform-center-y="-0.88194917"
                   transform="matrix(0.39247317,0,0,0.69446101,56.694959,90.836061)" />
              </g>
              <path
                 sodipodi:type="star"
                 style="opacity:1;fill:#ffffff;fill-opacity:1;stroke:none;stroke-width:1.39999998;stroke-linecap:butt;stroke-linejoin:round;stroke-miterlimit:4;stroke-dasharray:none;stroke-opacity:1"
                 id="path4954"
                 sodipodi:sides="3"
                 sodipodi:cx="80.698906"
                 sodipodi:cy="302.37766"
                 sodipodi:r1="5.0798788"
                 sodipodi:r2="2.5399394"
                 sodipodi:arg1="0.52359878"
                 sodipodi:arg2="1.5707963"
                 inkscape:flatsided="true"
                 inkscape:rounded="0"
                 inkscape:randomized="0"
                 d="m 85.09821,304.91759 -8.798608,0 4.399304,-7.61981 z"
                 inkscape:transform-center-y="-0.88194917"
                 transform="matrix(0.39247317,0,0,0.69446101,49.026761,90.836063)" />
              <path
                 transform="matrix(0.39247317,0,0,0.69446101,56.694967,90.836066)"
                 inkscape:transform-center-y="-0.88194917"
                 d="m 85.09821,304.91759 -8.798608,0 4.399304,-7.61981 z"
                 inkscape:randomized="0"
                 inkscape:rounded="0"
                 inkscape:flatsided="true"
                 sodipodi:arg2="1.5707963"
                 sodipodi:arg1="0.52359878"
                 sodipodi:r2="2.5399394"
                 sodipodi:r1="5.0798788"
                 sodipodi:cy="302.37766"
                 sodipodi:cx="80.698906"
                 sodipodi:sides="3"
                 id="path4967"
                 style="opacity:1;fill:#ffffff;fill-opacity:1;stroke:none;stroke-width:1.39999998;stroke-linecap:butt;stroke-linejoin:round;stroke-miterlimit:4;stroke-dasharray:none;stroke-opacity:1"
                 sodipodi:type="star" />
            </g>
            <path
               sodipodi:type="star"
               style="opacity:1;fill:#ffffff;fill-opacity:1;stroke:none;stroke-width:1.39999998;stroke-linecap:butt;stroke-linejoin:round;stroke-miterlimit:4;stroke-dasharray:none;stroke-opacity:1"
               id="path4969"
               sodipodi:sides="3"
               sodipodi:cx="80.698906"
               sodipodi:cy="302.37766"
               sodipodi:r1="5.0798788"
               sodipodi:r2="2.5399394"
               sodipodi:arg1="0.52359878"
               sodipodi:arg2="1.5707963"
               inkscape:flatsided="true"
               inkscape:rounded="0"
               inkscape:randomized="0"
               d="m 85.09821,304.91759 -8.798608,0 4.399304,-7.61981 z"
               inkscape:transform-center-y="-0.88194917"
               transform="matrix(0.39247317,0,0,0.69446101,56.812138,90.836049)" />
            <path
               transform="matrix(0.39247317,0,0,0.69446101,49.28239,90.836556)"
               inkscape:transform-center-y="-0.88194917"
               d="m 85.09821,304.91759 -8.798608,0 4.399304,-7.61981 z"
               inkscape:randomized="0"
               inkscape:rounded="0"
               inkscape:flatsided="true"
               sodipodi:arg2="1.5707963"
               sodipodi:arg1="0.52359878"
               sodipodi:r2="2.5399394"
               sodipodi:r1="5.0798788"
               sodipodi:cy="302.37766"
               sodipodi:cx="80.698906"
               sodipodi:sides="3"
               id="path4987"
               style="opacity:1;fill:#ffffff;fill-opacity:1;stroke:none;stroke-width:1.39999998;stroke-linecap:butt;stroke-linejoin:round;stroke-miterlimit:4;stroke-dasharray:none;stroke-opacity:1"
               sodipodi:type="star" />
          </g>
          <path
             transform="matrix(0.39247317,0,0,0.69446101,49.026774,90.836055)"
             inkscape:transform-center-y="-0.88194917"
             d="m 85.09821,304.91759 -8.798608,0 4.399304,-7.61981 z"
             inkscape:randomized="0"
             inkscape:rounded="0"
             inkscape:flatsided="true"
             sodipodi:arg2="1.5707963"
             sodipodi:arg1="0.52359878"
             sodipodi:r2="2.5399394"
             sodipodi:r1="5.0798788"
             sodipodi:cy="302.37766"
             sodipodi:cx="80.698906"
             sodipodi:sides="3"
             id="path4989"
             style="opacity:1;fill:#ffffff;fill-opacity:1;stroke:none;stroke-width:1.39999998;stroke-linecap:butt;stroke-linejoin:round;stroke-miterlimit:4;stroke-dasharray:none;stroke-opacity:1"
             sodipodi:type="star" />
          <path
             transform="matrix(0.39247317,0,0,0.69446101,56.695004,90.836053)"
             inkscape:transform-center-y="-0.88194917"
             d="m 85.09821,304.91759 -8.798608,0 4.399304,-7.61981 z"
             inkscape:randomized="0"
             inkscape:rounded="0"
             inkscape:flatsided="true"
             sodipodi:arg2="1.5707963"
             sodipodi:arg1="0.52359878"
             sodipodi:r2="2.5399394"
             sodipodi:r1="5.0798788"
             sodipodi:cy="302.37766"
             sodipodi:cx="80.698906"
             sodipodi:sides="3"
             id="path5010"
             style="opacity:1;fill:#ffffff;fill-opacity:1;stroke:none;stroke-width:1.39999998;stroke-linecap:butt;stroke-linejoin:round;stroke-miterlimit:4;stroke-dasharray:none;stroke-opacity:1"
             sodipodi:type="star" />
        </g>
      </g>
      <path
         sodipodi:type="star"
         style="opacity:1;fill:#ffffff;fill-opacity:1;stroke:none;stroke-width:1.39999998;stroke-linecap:butt;stroke-linejoin:round;stroke-miterlimit:4;stroke-dasharray:none;stroke-opacity:1"
         id="path5012"
         sodipodi:sides="3"
         sodipodi:cx="80.698906"
         sodipodi:cy="302.37766"
         sodipodi:r1="5.0798788"
         sodipodi:r2="2.5399394"
         sodipodi:arg1="0.52359878"
         sodipodi:arg2="1.5707963"
         inkscape:flatsided="true"
         inkscape:rounded="0"
         inkscape:randomized="0"
         d="m 85.09821,304.91759 -8.798608,0 4.399304,-7.61981 z"
         inkscape:transform-center-y="-0.88194917"
         transform="matrix(0.39247317,0,0,0.69446101,49.041406,90.861419)" />
      <path
         transform="matrix(0.39247317,0,0,0.69446101,56.709643,90.861416)"
         inkscape:transform-center-y="-0.88194917"
         d="m 85.09821,304.91759 -8.798608,0 4.399304,-7.61981 z"
         inkscape:randomized="0"
         inkscape:rounded="0"
         inkscape:flatsided="true"
         sodipodi:arg2="1.5707963"
         sodipodi:arg1="0.52359878"
         sodipodi:r2="2.5399394"
         sodipodi:r1="5.0798788"
         sodipodi:cy="302.37766"
         sodipodi:cx="80.698906"
         sodipodi:sides="3"
         id="path5034"
         style="opacity:1;fill:#ffffff;fill-opacity:1;stroke:none;stroke-width:1.39999998;stroke-linecap:butt;stroke-linejoin:round;stroke-miterlimit:4;stroke-dasharray:none;stroke-opacity:1"
         sodipodi:type="star" />
    </g>
    <path
       style="opacity:1;fill:#ffffff;fill-opacity:1;stroke:none;stroke-width:9.44343948;stroke-linecap:butt;stroke-linejoin:round;stroke-miterlimit:4;stroke-dasharray:none;stroke-opacity:1"
       d="M 288.59961 1282.6113 L 288.59961 1346.6113 L 309.93164 1346.6113 L 309.93164 1282.6113 L 288.59961 1282.6113 z M 331.26562 1282.6113 L 331.26562 1346.6113 L 352.59961 1346.6113 L 352.59961 1282.6113 L 331.26562 1282.6113 z "
       transform="scale(0.26458333)"
       id="rect5115"
       inkscape:export-xdpi="96"
       inkscape:export-ydpi="96" />
    <g
       transform="translate(-8.743329,-0.87243759)"
       id="g5132"
       inkscape:export-xdpi="96"
       inkscape:export-ydpi="96">
      <g
         transform="matrix(0.50000211,0,0,0.50000211,-16.398828,157.83844)"
         id="g5130">
        <path
           id="path5128"
           transform="matrix(1,0,0,1.7320508,0,-232.52009)"
           style="opacity:1;fill:#ffffff;fill-opacity:1;stroke:none;stroke-width:1.20673275;stroke-linecap:butt;stroke-linejoin:round;stroke-miterlimit:4;stroke-dasharray:none;stroke-opacity:1"
           d="M -9.536743e-7,315.4895 16.933333,305.71304 l -1e-6,19.55293 z m 1.510437e-6,-3.96238 H 16.933333 v 7.92476 H 5.567627e-7 Z M 20.047857,304.80246 a 13.228877,10.701945 0 0 0 -0.441829,0.006 v 2.67164 a 9.9216595,8.0263327 0 0 1 0.331156,-0.005 9.9216595,8.0263327 0 0 1 8.931319,5.1449 9.9216595,8.0263327 0 0 1 -5.705881,10.37008 h -4.31e-4 a 9.9216595,8.0263327 0 0 1 -3.556163,0.52442 v 2.67328 a 13.228877,10.701945 0 0 0 4.741694,-0.69899 h 4.31e-4 a 13.228877,10.701945 0 0 0 7.607983,-13.82681 13.228877,10.701945 0 0 0 -11.908279,-6.86008 z m -0.220914,5.34625 a 6.61444,5.3508887 0 0 0 -0.220915,0.003 v 10.6902 a 6.61444,5.3508887 0 0 0 2.370632,-0.34981 h 4.3e-4 a 6.61444,5.3508887 0 0 0 3.803777,-6.91329 6.61444,5.3508887 0 0 0 -5.953924,-3.43005 z" />
      </g>
    </g>
    <rect
       transform="rotate(-45)"
       style="opacity:1;fill:#000000;fill-opacity:1;stroke:none;stroke-width:0.41233364;stroke-linecap:butt;stroke-linejoin:round;stroke-miterlimit:4;stroke-dasharray:none;stroke-opacity:1"
       id="rect5138"
       width="1.7461609"
       height="24.446253"
       x="-233.83333"
       y="197.78758"
       inkscape:export-xdpi="96"
       inkscape:export-ydpi="96" />
    <rect
       y="197.78758"
       x="-234.83113"
       height="24.446253"
       width="1.7461609"
       id="rect5136"
       style="opacity:1;fill:#ffffff;fill-opacity:1;stroke:none;stroke-width:0.41233364;stroke-linecap:butt;stroke-linejoin:round;stroke-miterlimit:4;stroke-dasharray:none;stroke-opacity:1"
       transform="rotate(-45)"
       inkscape:export-xdpi="96"
       inkscape:export-ydpi="96" />
    <path
       style="opacity:1;fill:#ffffff;fill-opacity:1;stroke:none;stroke-width:1.99324644;stroke-linecap:butt;stroke-linejoin:round;stroke-miterlimit:4;stroke-dasharray:none;stroke-opacity:1"
       id="path5148"
       sodipodi:type="arc"
       sodipodi:cx="118.53333"
       sodipodi:cy="280.06665"
       sodipodi:rx="16.933332"
       sodipodi:ry="16.933332"
       sodipodi:start="1.2042126"
       sodipodi:end="1.2041899"
       sodipodi:open="true"
       d="m 124.60272,295.87489 a 16.933332,16.933332 0 0 1 -21.87759,-9.73877 16.933332,16.933332 0 0 1 9.73864,-21.87764 16.933332,16.933332 0 0 1 21.8777,9.73852 16.933332,16.933332 0 0 1 -9.73839,21.87775" />
    <path
       style="opacity:1;fill:#ffffff;fill-opacity:1;stroke:none;stroke-width:0.6166572;stroke-linecap:butt;stroke-linejoin:round;stroke-miterlimit:4;stroke-dasharray:none;stroke-opacity:1"
       d="m 37.729278,334.59495 v 10.58333 h 3.96875 v -6.61458 h 6.61459 v -3.96875 z m 15.875,0 v 3.96875 h 6.61459 v 6.61458 h 3.96875 v -10.58333 z m -15.875,15.875 v 10.58333 h 10.58334 v -3.96875 h -6.61459 v -6.61458 z m 22.48959,0 v 6.61458 h -6.61459 v 3.96875 h 10.58334 v -10.58333 z"
       id="rect5179"
       inkscape:connector-curvature="0"
       inkscape:export-xdpi="96"
       inkscape:export-ydpi="96" />
    <path
       style="opacity:1;fill:#ffffff;fill-opacity:1;stroke:none;stroke-width:0.6166572;stroke-linecap:butt;stroke-linejoin:round;stroke-miterlimit:4;stroke-dasharray:none;stroke-opacity:1"
       d="m 125.14792,361.02917 v -6.61458 h 6.61458 v -3.96875 h -10.58333 v 10.58333 z"
       id="path5202"
       inkscape:connector-curvature="0" />
    <path
       id="path5212"
       d="m 131.76249,341.18542 h -6.61457 v -6.61459 h -3.96875 v 10.58334 h 10.58332 z"
       style="opacity:1;fill:#ffffff;fill-opacity:1;stroke:none;stroke-width:0.6166572;stroke-linecap:butt;stroke-linejoin:round;stroke-miterlimit:4;stroke-dasharray:none;stroke-opacity:1"
       inkscape:connector-curvature="0" />
    <path
       inkscape:connector-curvature="0"
       id="path5214"
       d="m 105.30416,354.41459 h 6.61458 v 6.61458 h 3.96875 v -10.58333 h -10.58333 z"
       style="opacity:1;fill:#ffffff;fill-opacity:1;stroke:none;stroke-width:0.6166572;stroke-linecap:butt;stroke-linejoin:round;stroke-miterlimit:4;stroke-dasharray:none;stroke-opacity:1" />
    <path
       style="opacity:1;fill:#ffffff;fill-opacity:1;stroke:none;stroke-width:0.6166572;stroke-linecap:butt;stroke-linejoin:round;stroke-miterlimit:4;stroke-dasharray:none;stroke-opacity:1"
       d="m 111.91874,334.57083 v 6.61458 h -6.61458 v 3.96875 h 10.58333 v -10.58333 z"
       id="path5216"
       inkscape:connector-curvature="0" />
    <path
       style="opacity:1;fill:#ffffff;fill-opacity:1;stroke:none;stroke-width:1.34006047;stroke-linecap:butt;stroke-linejoin:round;stroke-miterlimit:4;stroke-dasharray:none;stroke-opacity:1"
       d="m 101.59999,303.35 v 21.16667 h 35.71875 V 303.35 Z m 2.64583,2.64584 h 30.42709 v 15.875 h -30.42709 z"
       id="rect5222"
       inkscape:connector-curvature="0"
       inkscape:export-xdpi="96"
       inkscape:export-ydpi="96" />
    <path
       style="opacity:1;fill:#ffffff;fill-opacity:1;stroke:none;stroke-width:1.0711174;stroke-linecap:butt;stroke-linejoin:round;stroke-miterlimit:4;stroke-dasharray:none;stroke-opacity:1"
       d="m 1.8782936,339.88661 v 15.875 H 32.305378 v -15.875 z m 2.6458333,2.64583 H 29.659544 v 10.58334 H 4.5241269 Z"
       id="rect5229"
       inkscape:connector-curvature="0"
       inkscape:export-xdpi="96"
       inkscape:export-ydpi="96" />
  </g>
</svg>
